%TF.GenerationSoftware,KiCad,Pcbnew,(5.1.9-0-10_14)*%
%TF.CreationDate,2021-02-12T19:32:22+01:00*%
%TF.ProjectId,nixie_clock,6e697869-655f-4636-9c6f-636b2e6b6963,v01*%
%TF.SameCoordinates,Original*%
%TF.FileFunction,Soldermask,Bot*%
%TF.FilePolarity,Negative*%
%FSLAX46Y46*%
G04 Gerber Fmt 4.6, Leading zero omitted, Abs format (unit mm)*
G04 Created by KiCad (PCBNEW (5.1.9-0-10_14)) date 2021-02-12 19:32:22*
%MOMM*%
%LPD*%
G01*
G04 APERTURE LIST*
%ADD10C,3.400000*%
%ADD11O,1.800000X1.800000*%
%ADD12C,1.800000*%
%ADD13C,1.546200*%
%ADD14O,2.105000X2.200000*%
%ADD15C,1.724000*%
%ADD16O,1.900000X1.900000*%
%ADD17C,0.150000*%
G04 APERTURE END LIST*
D10*
%TO.C,REF\u002A\u002A*%
X54356000Y-54356000D03*
%TD*%
%TO.C,REF\u002A\u002A*%
X195834000Y-54356000D03*
%TD*%
%TO.C,REF\u002A\u002A*%
X195834000Y-105664000D03*
%TD*%
%TO.C,REF\u002A\u002A*%
X54356000Y-105664000D03*
%TD*%
D11*
%TO.C,U4*%
X146558000Y-94996000D03*
X164338000Y-102616000D03*
X149098000Y-94996000D03*
X161798000Y-102616000D03*
X151638000Y-94996000D03*
X159258000Y-102616000D03*
X154178000Y-94996000D03*
X156718000Y-102616000D03*
X156718000Y-94996000D03*
X154178000Y-102616000D03*
X159258000Y-94996000D03*
X151638000Y-102616000D03*
X161798000Y-94996000D03*
X149098000Y-102616000D03*
X164338000Y-94996000D03*
G36*
G01*
X147358000Y-103516000D02*
X145758000Y-103516000D01*
G75*
G02*
X145658000Y-103416000I0J100000D01*
G01*
X145658000Y-101816000D01*
G75*
G02*
X145758000Y-101716000I100000J0D01*
G01*
X147358000Y-101716000D01*
G75*
G02*
X147458000Y-101816000I0J-100000D01*
G01*
X147458000Y-103416000D01*
G75*
G02*
X147358000Y-103516000I-100000J0D01*
G01*
G37*
%TD*%
%TO.C,R2*%
X182118000Y-65278000D03*
D12*
X182118000Y-55118000D03*
%TD*%
D13*
%TO.C,N2*%
X179242720Y-72844660D03*
X184993280Y-72844660D03*
X182118000Y-72136000D03*
X188262260Y-77579220D03*
X187904120Y-80518000D03*
X186222640Y-82956400D03*
X183598820Y-84333080D03*
X180637180Y-84333080D03*
X178013360Y-82956400D03*
X176331880Y-80518000D03*
X175973740Y-77579220D03*
X177025300Y-74808080D03*
X187210700Y-74808080D03*
%TD*%
%TO.C,N3*%
X79006700Y-74808080D03*
X68821300Y-74808080D03*
X67769740Y-77579220D03*
X68127880Y-80518000D03*
X69809360Y-82956400D03*
X72433180Y-84333080D03*
X75394820Y-84333080D03*
X78018640Y-82956400D03*
X79700120Y-80518000D03*
X80058260Y-77579220D03*
X73914000Y-72136000D03*
X76789280Y-72844660D03*
X71038720Y-72844660D03*
%TD*%
%TO.C,N4*%
X96438720Y-72844660D03*
X102189280Y-72844660D03*
X99314000Y-72136000D03*
X105458260Y-77579220D03*
X105100120Y-80518000D03*
X103418640Y-82956400D03*
X100794820Y-84333080D03*
X97833180Y-84333080D03*
X95209360Y-82956400D03*
X93527880Y-80518000D03*
X93169740Y-77579220D03*
X94221300Y-74808080D03*
X104406700Y-74808080D03*
%TD*%
D11*
%TO.C,R1*%
X156718000Y-65278000D03*
D12*
X156718000Y-55118000D03*
%TD*%
%TO.C,R3*%
X73914000Y-55118000D03*
D11*
X73914000Y-65278000D03*
%TD*%
D12*
%TO.C,R4*%
X99314000Y-55118000D03*
D11*
X99314000Y-65278000D03*
%TD*%
D14*
%TO.C,U1*%
X56134000Y-69088000D03*
X58674000Y-69088000D03*
G36*
G01*
X62266500Y-68088000D02*
X62266500Y-70088000D01*
G75*
G02*
X62166500Y-70188000I-100000J0D01*
G01*
X60261500Y-70188000D01*
G75*
G02*
X60161500Y-70088000I0J100000D01*
G01*
X60161500Y-68088000D01*
G75*
G02*
X60261500Y-67988000I100000J0D01*
G01*
X62166500Y-67988000D01*
G75*
G02*
X62266500Y-68088000I0J-100000D01*
G01*
G37*
%TD*%
D15*
%TO.C,U2*%
X139446000Y-60198000D03*
X139446000Y-62738000D03*
X139446000Y-65278000D03*
X139446000Y-67818000D03*
X139446000Y-70358000D03*
X139446000Y-72898000D03*
X139446000Y-75438000D03*
X139446000Y-77978000D03*
X139446000Y-80518000D03*
X139446000Y-83058000D03*
X139446000Y-85598000D03*
X139446000Y-88138000D03*
X139446000Y-90678000D03*
X139446000Y-93218000D03*
X139446000Y-95758000D03*
X114046000Y-95758000D03*
X114046000Y-93218000D03*
X114046000Y-90678000D03*
X114046000Y-88138000D03*
X114046000Y-85598000D03*
X114046000Y-83058000D03*
X114046000Y-80518000D03*
X114046000Y-77978000D03*
X114046000Y-75438000D03*
X114046000Y-72898000D03*
X114046000Y-70358000D03*
X114046000Y-67818000D03*
X114046000Y-65278000D03*
X114046000Y-62738000D03*
G36*
G01*
X113184000Y-60960000D02*
X113184000Y-59436000D01*
G75*
G02*
X113284000Y-59336000I100000J0D01*
G01*
X114808000Y-59336000D01*
G75*
G02*
X114908000Y-59436000I0J-100000D01*
G01*
X114908000Y-60960000D01*
G75*
G02*
X114808000Y-61060000I-100000J0D01*
G01*
X113284000Y-61060000D01*
G75*
G02*
X113184000Y-60960000I0J100000D01*
G01*
G37*
%TD*%
%TO.C,U5*%
G36*
G01*
X172758000Y-103516000D02*
X171158000Y-103516000D01*
G75*
G02*
X171058000Y-103416000I0J100000D01*
G01*
X171058000Y-101816000D01*
G75*
G02*
X171158000Y-101716000I100000J0D01*
G01*
X172758000Y-101716000D01*
G75*
G02*
X172858000Y-101816000I0J-100000D01*
G01*
X172858000Y-103416000D01*
G75*
G02*
X172758000Y-103516000I-100000J0D01*
G01*
G37*
D11*
X189738000Y-94996000D03*
X174498000Y-102616000D03*
X187198000Y-94996000D03*
X177038000Y-102616000D03*
X184658000Y-94996000D03*
X179578000Y-102616000D03*
X182118000Y-94996000D03*
X182118000Y-102616000D03*
X179578000Y-94996000D03*
X184658000Y-102616000D03*
X177038000Y-94996000D03*
X187198000Y-102616000D03*
X174498000Y-94996000D03*
X189738000Y-102616000D03*
X171958000Y-94996000D03*
%TD*%
%TO.C,U6*%
X63754000Y-94996000D03*
X81534000Y-102616000D03*
X66294000Y-94996000D03*
X78994000Y-102616000D03*
X68834000Y-94996000D03*
X76454000Y-102616000D03*
X71374000Y-94996000D03*
X73914000Y-102616000D03*
X73914000Y-94996000D03*
X71374000Y-102616000D03*
X76454000Y-94996000D03*
X68834000Y-102616000D03*
X78994000Y-94996000D03*
X66294000Y-102616000D03*
X81534000Y-94996000D03*
G36*
G01*
X64554000Y-103516000D02*
X62954000Y-103516000D01*
G75*
G02*
X62854000Y-103416000I0J100000D01*
G01*
X62854000Y-101816000D01*
G75*
G02*
X62954000Y-101716000I100000J0D01*
G01*
X64554000Y-101716000D01*
G75*
G02*
X64654000Y-101816000I0J-100000D01*
G01*
X64654000Y-103416000D01*
G75*
G02*
X64554000Y-103516000I-100000J0D01*
G01*
G37*
%TD*%
%TO.C,U7*%
G36*
G01*
X89954000Y-103516000D02*
X88354000Y-103516000D01*
G75*
G02*
X88254000Y-103416000I0J100000D01*
G01*
X88254000Y-101816000D01*
G75*
G02*
X88354000Y-101716000I100000J0D01*
G01*
X89954000Y-101716000D01*
G75*
G02*
X90054000Y-101816000I0J-100000D01*
G01*
X90054000Y-103416000D01*
G75*
G02*
X89954000Y-103516000I-100000J0D01*
G01*
G37*
X106934000Y-94996000D03*
X91694000Y-102616000D03*
X104394000Y-94996000D03*
X94234000Y-102616000D03*
X101854000Y-94996000D03*
X96774000Y-102616000D03*
X99314000Y-94996000D03*
X99314000Y-102616000D03*
X96774000Y-94996000D03*
X101854000Y-102616000D03*
X94234000Y-94996000D03*
X104394000Y-102616000D03*
X91694000Y-94996000D03*
X106934000Y-102616000D03*
X89154000Y-94996000D03*
%TD*%
D13*
%TO.C,N1*%
X153842720Y-72844660D03*
X159593280Y-72844660D03*
X156718000Y-72136000D03*
X162862260Y-77579220D03*
X162504120Y-80518000D03*
X160822640Y-82956400D03*
X158198820Y-84333080D03*
X155237180Y-84333080D03*
X152613360Y-82956400D03*
X150931880Y-80518000D03*
X150573740Y-77579220D03*
X151625300Y-74808080D03*
X161810700Y-74808080D03*
%TD*%
%TO.C,C1*%
G36*
G01*
X56641500Y-63958267D02*
X56641500Y-62533733D01*
G75*
G02*
X56929233Y-62246000I287733J0D01*
G01*
X57878767Y-62246000D01*
G75*
G02*
X58166500Y-62533733I0J-287733D01*
G01*
X58166500Y-63958267D01*
G75*
G02*
X57878767Y-64246000I-287733J0D01*
G01*
X56929233Y-64246000D01*
G75*
G02*
X56641500Y-63958267I0J287733D01*
G01*
G37*
G36*
G01*
X53516500Y-63958267D02*
X53516500Y-62533733D01*
G75*
G02*
X53804233Y-62246000I287733J0D01*
G01*
X54753767Y-62246000D01*
G75*
G02*
X55041500Y-62533733I0J-287733D01*
G01*
X55041500Y-63958267D01*
G75*
G02*
X54753767Y-64246000I-287733J0D01*
G01*
X53804233Y-64246000D01*
G75*
G02*
X53516500Y-63958267I0J287733D01*
G01*
G37*
%TD*%
%TO.C,C2*%
G36*
G01*
X63539000Y-62533733D02*
X63539000Y-63958267D01*
G75*
G02*
X63251267Y-64246000I-287733J0D01*
G01*
X62301733Y-64246000D01*
G75*
G02*
X62014000Y-63958267I0J287733D01*
G01*
X62014000Y-62533733D01*
G75*
G02*
X62301733Y-62246000I287733J0D01*
G01*
X63251267Y-62246000D01*
G75*
G02*
X63539000Y-62533733I0J-287733D01*
G01*
G37*
G36*
G01*
X60414000Y-62533733D02*
X60414000Y-63958267D01*
G75*
G02*
X60126267Y-64246000I-287733J0D01*
G01*
X59176733Y-64246000D01*
G75*
G02*
X58889000Y-63958267I0J287733D01*
G01*
X58889000Y-62533733D01*
G75*
G02*
X59176733Y-62246000I287733J0D01*
G01*
X60126267Y-62246000D01*
G75*
G02*
X60414000Y-62533733I0J-287733D01*
G01*
G37*
%TD*%
%TO.C,J2*%
G36*
G01*
X63416000Y-57642000D02*
X63416000Y-55642000D01*
G75*
G02*
X63516000Y-55542000I100000J0D01*
G01*
X65516000Y-55542000D01*
G75*
G02*
X65616000Y-55642000I0J-100000D01*
G01*
X65616000Y-57642000D01*
G75*
G02*
X65516000Y-57742000I-100000J0D01*
G01*
X63516000Y-57742000D01*
G75*
G02*
X63416000Y-57642000I0J100000D01*
G01*
G37*
%TD*%
%TO.C,J3*%
G36*
G01*
X168064000Y-56118000D02*
X168064000Y-54118000D01*
G75*
G02*
X168164000Y-54018000I100000J0D01*
G01*
X170164000Y-54018000D01*
G75*
G02*
X170264000Y-54118000I0J-100000D01*
G01*
X170264000Y-56118000D01*
G75*
G02*
X170164000Y-56218000I-100000J0D01*
G01*
X168164000Y-56218000D01*
G75*
G02*
X168064000Y-56118000I0J100000D01*
G01*
G37*
%TD*%
%TO.C,U3*%
G36*
G01*
X168468000Y-62572000D02*
X168468000Y-60872000D01*
G75*
G02*
X168568000Y-60772000I100000J0D01*
G01*
X170268000Y-60772000D01*
G75*
G02*
X170368000Y-60872000I0J-100000D01*
G01*
X170368000Y-62572000D01*
G75*
G02*
X170268000Y-62672000I-100000J0D01*
G01*
X168568000Y-62672000D01*
G75*
G02*
X168468000Y-62572000I0J100000D01*
G01*
G37*
D16*
X169418000Y-64262000D03*
X169418000Y-66802000D03*
X169418000Y-69342000D03*
X169418000Y-71882000D03*
X169418000Y-74422000D03*
%TD*%
%TO.C,J1*%
G36*
G01*
X59098000Y-57642000D02*
X59098000Y-55642000D01*
G75*
G02*
X59198000Y-55542000I100000J0D01*
G01*
X61198000Y-55542000D01*
G75*
G02*
X61298000Y-55642000I0J-100000D01*
G01*
X61298000Y-57642000D01*
G75*
G02*
X61198000Y-57742000I-100000J0D01*
G01*
X59198000Y-57742000D01*
G75*
G02*
X59098000Y-57642000I0J100000D01*
G01*
G37*
%TD*%
D17*
G36*
X55042665Y-63956641D02*
G01*
X55043500Y-63958267D01*
X55043500Y-64044292D01*
X55043490Y-64044488D01*
X55039044Y-64089632D01*
X55038968Y-64090017D01*
X55027950Y-64126338D01*
X55027800Y-64126700D01*
X55009910Y-64160170D01*
X55009692Y-64160496D01*
X54985613Y-64189836D01*
X54985336Y-64190113D01*
X54955996Y-64214192D01*
X54955670Y-64214410D01*
X54922200Y-64232300D01*
X54921838Y-64232450D01*
X54885517Y-64243468D01*
X54885132Y-64243544D01*
X54839988Y-64247990D01*
X54839792Y-64248000D01*
X54753767Y-64248000D01*
X54752035Y-64247000D01*
X54752035Y-64245000D01*
X54753571Y-64244010D01*
X54809506Y-64238501D01*
X54863109Y-64222241D01*
X54912507Y-64195837D01*
X54955804Y-64160304D01*
X54991337Y-64117007D01*
X55017741Y-64067609D01*
X55034001Y-64014006D01*
X55039510Y-63958071D01*
X55040675Y-63956445D01*
X55042665Y-63956641D01*
G37*
G36*
X60415165Y-63956641D02*
G01*
X60416000Y-63958267D01*
X60416000Y-64044292D01*
X60415990Y-64044488D01*
X60411544Y-64089632D01*
X60411468Y-64090017D01*
X60400450Y-64126338D01*
X60400300Y-64126700D01*
X60382410Y-64160170D01*
X60382192Y-64160496D01*
X60358113Y-64189836D01*
X60357836Y-64190113D01*
X60328496Y-64214192D01*
X60328170Y-64214410D01*
X60294700Y-64232300D01*
X60294338Y-64232450D01*
X60258017Y-64243468D01*
X60257632Y-64243544D01*
X60212488Y-64247990D01*
X60212292Y-64248000D01*
X60126267Y-64248000D01*
X60124535Y-64247000D01*
X60124535Y-64245000D01*
X60126071Y-64244010D01*
X60182006Y-64238501D01*
X60235609Y-64222241D01*
X60285007Y-64195837D01*
X60328304Y-64160304D01*
X60363837Y-64117007D01*
X60390241Y-64067609D01*
X60406501Y-64014006D01*
X60412010Y-63958071D01*
X60413175Y-63956445D01*
X60415165Y-63956641D01*
G37*
G36*
X58167665Y-63956641D02*
G01*
X58168500Y-63958267D01*
X58168500Y-64044292D01*
X58168490Y-64044488D01*
X58164044Y-64089632D01*
X58163968Y-64090017D01*
X58152950Y-64126338D01*
X58152800Y-64126700D01*
X58134910Y-64160170D01*
X58134692Y-64160496D01*
X58110613Y-64189836D01*
X58110336Y-64190113D01*
X58080996Y-64214192D01*
X58080670Y-64214410D01*
X58047200Y-64232300D01*
X58046838Y-64232450D01*
X58010517Y-64243468D01*
X58010132Y-64243544D01*
X57964988Y-64247990D01*
X57964792Y-64248000D01*
X57878767Y-64248000D01*
X57877035Y-64247000D01*
X57877035Y-64245000D01*
X57878571Y-64244010D01*
X57934506Y-64238501D01*
X57988109Y-64222241D01*
X58037507Y-64195837D01*
X58080804Y-64160304D01*
X58116337Y-64117007D01*
X58142741Y-64067609D01*
X58159001Y-64014006D01*
X58164510Y-63958071D01*
X58165675Y-63956445D01*
X58167665Y-63956641D01*
G37*
G36*
X62015990Y-63958071D02*
G01*
X62021499Y-64014006D01*
X62037759Y-64067609D01*
X62064163Y-64117007D01*
X62099696Y-64160304D01*
X62142993Y-64195837D01*
X62192391Y-64222241D01*
X62245994Y-64238501D01*
X62301929Y-64244010D01*
X62303555Y-64245175D01*
X62303359Y-64247165D01*
X62301733Y-64248000D01*
X62215708Y-64248000D01*
X62215512Y-64247990D01*
X62170368Y-64243544D01*
X62169983Y-64243468D01*
X62133662Y-64232450D01*
X62133300Y-64232300D01*
X62099830Y-64214410D01*
X62099504Y-64214192D01*
X62070164Y-64190113D01*
X62069887Y-64189836D01*
X62045808Y-64160496D01*
X62045590Y-64160170D01*
X62027700Y-64126700D01*
X62027550Y-64126338D01*
X62016532Y-64090017D01*
X62016456Y-64089632D01*
X62012010Y-64044488D01*
X62012000Y-64044292D01*
X62012000Y-63958267D01*
X62013000Y-63956535D01*
X62015000Y-63956535D01*
X62015990Y-63958071D01*
G37*
G36*
X63540165Y-63956641D02*
G01*
X63541000Y-63958267D01*
X63541000Y-64044292D01*
X63540990Y-64044488D01*
X63536544Y-64089632D01*
X63536468Y-64090017D01*
X63525450Y-64126338D01*
X63525300Y-64126700D01*
X63507410Y-64160170D01*
X63507192Y-64160496D01*
X63483113Y-64189836D01*
X63482836Y-64190113D01*
X63453496Y-64214192D01*
X63453170Y-64214410D01*
X63419700Y-64232300D01*
X63419338Y-64232450D01*
X63383017Y-64243468D01*
X63382632Y-64243544D01*
X63337488Y-64247990D01*
X63337292Y-64248000D01*
X63251267Y-64248000D01*
X63249535Y-64247000D01*
X63249535Y-64245000D01*
X63251071Y-64244010D01*
X63307006Y-64238501D01*
X63360609Y-64222241D01*
X63410007Y-64195837D01*
X63453304Y-64160304D01*
X63488837Y-64117007D01*
X63515241Y-64067609D01*
X63531501Y-64014006D01*
X63537010Y-63958071D01*
X63538175Y-63956445D01*
X63540165Y-63956641D01*
G37*
G36*
X58890990Y-63958071D02*
G01*
X58896499Y-64014006D01*
X58912759Y-64067609D01*
X58939163Y-64117007D01*
X58974696Y-64160304D01*
X59017993Y-64195837D01*
X59067391Y-64222241D01*
X59120994Y-64238501D01*
X59176929Y-64244010D01*
X59178555Y-64245175D01*
X59178359Y-64247165D01*
X59176733Y-64248000D01*
X59090708Y-64248000D01*
X59090512Y-64247990D01*
X59045368Y-64243544D01*
X59044983Y-64243468D01*
X59008662Y-64232450D01*
X59008300Y-64232300D01*
X58974830Y-64214410D01*
X58974504Y-64214192D01*
X58945164Y-64190113D01*
X58944887Y-64189836D01*
X58920808Y-64160496D01*
X58920590Y-64160170D01*
X58902700Y-64126700D01*
X58902550Y-64126338D01*
X58891532Y-64090017D01*
X58891456Y-64089632D01*
X58887010Y-64044488D01*
X58887000Y-64044292D01*
X58887000Y-63958267D01*
X58888000Y-63956535D01*
X58890000Y-63956535D01*
X58890990Y-63958071D01*
G37*
G36*
X56643490Y-63958071D02*
G01*
X56648999Y-64014006D01*
X56665259Y-64067609D01*
X56691663Y-64117007D01*
X56727196Y-64160304D01*
X56770493Y-64195837D01*
X56819891Y-64222241D01*
X56873494Y-64238501D01*
X56929429Y-64244010D01*
X56931055Y-64245175D01*
X56930859Y-64247165D01*
X56929233Y-64248000D01*
X56843208Y-64248000D01*
X56843012Y-64247990D01*
X56797868Y-64243544D01*
X56797483Y-64243468D01*
X56761162Y-64232450D01*
X56760800Y-64232300D01*
X56727330Y-64214410D01*
X56727004Y-64214192D01*
X56697664Y-64190113D01*
X56697387Y-64189836D01*
X56673308Y-64160496D01*
X56673090Y-64160170D01*
X56655200Y-64126700D01*
X56655050Y-64126338D01*
X56644032Y-64090017D01*
X56643956Y-64089632D01*
X56639510Y-64044488D01*
X56639500Y-64044292D01*
X56639500Y-63958267D01*
X56640500Y-63956535D01*
X56642500Y-63956535D01*
X56643490Y-63958071D01*
G37*
G36*
X53518490Y-63958071D02*
G01*
X53523999Y-64014006D01*
X53540259Y-64067609D01*
X53566663Y-64117007D01*
X53602196Y-64160304D01*
X53645493Y-64195837D01*
X53694891Y-64222241D01*
X53748494Y-64238501D01*
X53804429Y-64244010D01*
X53806055Y-64245175D01*
X53805859Y-64247165D01*
X53804233Y-64248000D01*
X53718208Y-64248000D01*
X53718012Y-64247990D01*
X53672868Y-64243544D01*
X53672483Y-64243468D01*
X53636162Y-64232450D01*
X53635800Y-64232300D01*
X53602330Y-64214410D01*
X53602004Y-64214192D01*
X53572664Y-64190113D01*
X53572387Y-64189836D01*
X53548308Y-64160496D01*
X53548090Y-64160170D01*
X53530200Y-64126700D01*
X53530050Y-64126338D01*
X53519032Y-64090017D01*
X53518956Y-64089632D01*
X53514510Y-64044488D01*
X53514500Y-64044292D01*
X53514500Y-63958267D01*
X53515500Y-63956535D01*
X53517500Y-63956535D01*
X53518490Y-63958071D01*
G37*
G36*
X53805965Y-62245000D02*
G01*
X53805965Y-62247000D01*
X53804429Y-62247990D01*
X53748494Y-62253499D01*
X53694891Y-62269759D01*
X53645493Y-62296163D01*
X53602196Y-62331696D01*
X53566663Y-62374993D01*
X53540259Y-62424391D01*
X53523999Y-62477994D01*
X53518490Y-62533929D01*
X53517325Y-62535555D01*
X53515335Y-62535359D01*
X53514500Y-62533733D01*
X53514500Y-62447708D01*
X53514510Y-62447512D01*
X53518956Y-62402368D01*
X53519032Y-62401983D01*
X53530050Y-62365662D01*
X53530200Y-62365300D01*
X53548090Y-62331830D01*
X53548308Y-62331504D01*
X53572387Y-62302164D01*
X53572664Y-62301887D01*
X53602004Y-62277808D01*
X53602330Y-62277590D01*
X53635800Y-62259700D01*
X53636162Y-62259550D01*
X53672483Y-62248532D01*
X53672868Y-62248456D01*
X53718012Y-62244010D01*
X53718208Y-62244000D01*
X53804233Y-62244000D01*
X53805965Y-62245000D01*
G37*
G36*
X56930965Y-62245000D02*
G01*
X56930965Y-62247000D01*
X56929429Y-62247990D01*
X56873494Y-62253499D01*
X56819891Y-62269759D01*
X56770493Y-62296163D01*
X56727196Y-62331696D01*
X56691663Y-62374993D01*
X56665259Y-62424391D01*
X56648999Y-62477994D01*
X56643490Y-62533929D01*
X56642325Y-62535555D01*
X56640335Y-62535359D01*
X56639500Y-62533733D01*
X56639500Y-62447708D01*
X56639510Y-62447512D01*
X56643956Y-62402368D01*
X56644032Y-62401983D01*
X56655050Y-62365662D01*
X56655200Y-62365300D01*
X56673090Y-62331830D01*
X56673308Y-62331504D01*
X56697387Y-62302164D01*
X56697664Y-62301887D01*
X56727004Y-62277808D01*
X56727330Y-62277590D01*
X56760800Y-62259700D01*
X56761162Y-62259550D01*
X56797483Y-62248532D01*
X56797868Y-62248456D01*
X56843012Y-62244010D01*
X56843208Y-62244000D01*
X56929233Y-62244000D01*
X56930965Y-62245000D01*
G37*
G36*
X59178465Y-62245000D02*
G01*
X59178465Y-62247000D01*
X59176929Y-62247990D01*
X59120994Y-62253499D01*
X59067391Y-62269759D01*
X59017993Y-62296163D01*
X58974696Y-62331696D01*
X58939163Y-62374993D01*
X58912759Y-62424391D01*
X58896499Y-62477994D01*
X58890990Y-62533929D01*
X58889825Y-62535555D01*
X58887835Y-62535359D01*
X58887000Y-62533733D01*
X58887000Y-62447708D01*
X58887010Y-62447512D01*
X58891456Y-62402368D01*
X58891532Y-62401983D01*
X58902550Y-62365662D01*
X58902700Y-62365300D01*
X58920590Y-62331830D01*
X58920808Y-62331504D01*
X58944887Y-62302164D01*
X58945164Y-62301887D01*
X58974504Y-62277808D01*
X58974830Y-62277590D01*
X59008300Y-62259700D01*
X59008662Y-62259550D01*
X59044983Y-62248532D01*
X59045368Y-62248456D01*
X59090512Y-62244010D01*
X59090708Y-62244000D01*
X59176733Y-62244000D01*
X59178465Y-62245000D01*
G37*
G36*
X62303465Y-62245000D02*
G01*
X62303465Y-62247000D01*
X62301929Y-62247990D01*
X62245994Y-62253499D01*
X62192391Y-62269759D01*
X62142993Y-62296163D01*
X62099696Y-62331696D01*
X62064163Y-62374993D01*
X62037759Y-62424391D01*
X62021499Y-62477994D01*
X62015990Y-62533929D01*
X62014825Y-62535555D01*
X62012835Y-62535359D01*
X62012000Y-62533733D01*
X62012000Y-62447708D01*
X62012010Y-62447512D01*
X62016456Y-62402368D01*
X62016532Y-62401983D01*
X62027550Y-62365662D01*
X62027700Y-62365300D01*
X62045590Y-62331830D01*
X62045808Y-62331504D01*
X62069887Y-62302164D01*
X62070164Y-62301887D01*
X62099504Y-62277808D01*
X62099830Y-62277590D01*
X62133300Y-62259700D01*
X62133662Y-62259550D01*
X62169983Y-62248532D01*
X62170368Y-62248456D01*
X62215512Y-62244010D01*
X62215708Y-62244000D01*
X62301733Y-62244000D01*
X62303465Y-62245000D01*
G37*
G36*
X54839988Y-62244010D02*
G01*
X54885132Y-62248456D01*
X54885517Y-62248532D01*
X54921838Y-62259550D01*
X54922200Y-62259700D01*
X54955670Y-62277590D01*
X54955996Y-62277808D01*
X54985336Y-62301887D01*
X54985613Y-62302164D01*
X55009692Y-62331504D01*
X55009910Y-62331830D01*
X55027800Y-62365300D01*
X55027950Y-62365662D01*
X55038968Y-62401983D01*
X55039044Y-62402368D01*
X55043490Y-62447512D01*
X55043500Y-62447708D01*
X55043500Y-62533733D01*
X55042500Y-62535465D01*
X55040500Y-62535465D01*
X55039510Y-62533929D01*
X55034001Y-62477994D01*
X55017741Y-62424391D01*
X54991337Y-62374993D01*
X54955804Y-62331696D01*
X54912507Y-62296163D01*
X54863109Y-62269759D01*
X54809506Y-62253499D01*
X54753571Y-62247990D01*
X54751945Y-62246825D01*
X54752141Y-62244835D01*
X54753767Y-62244000D01*
X54839792Y-62244000D01*
X54839988Y-62244010D01*
G37*
G36*
X63337488Y-62244010D02*
G01*
X63382632Y-62248456D01*
X63383017Y-62248532D01*
X63419338Y-62259550D01*
X63419700Y-62259700D01*
X63453170Y-62277590D01*
X63453496Y-62277808D01*
X63482836Y-62301887D01*
X63483113Y-62302164D01*
X63507192Y-62331504D01*
X63507410Y-62331830D01*
X63525300Y-62365300D01*
X63525450Y-62365662D01*
X63536468Y-62401983D01*
X63536544Y-62402368D01*
X63540990Y-62447512D01*
X63541000Y-62447708D01*
X63541000Y-62533733D01*
X63540000Y-62535465D01*
X63538000Y-62535465D01*
X63537010Y-62533929D01*
X63531501Y-62477994D01*
X63515241Y-62424391D01*
X63488837Y-62374993D01*
X63453304Y-62331696D01*
X63410007Y-62296163D01*
X63360609Y-62269759D01*
X63307006Y-62253499D01*
X63251071Y-62247990D01*
X63249445Y-62246825D01*
X63249641Y-62244835D01*
X63251267Y-62244000D01*
X63337292Y-62244000D01*
X63337488Y-62244010D01*
G37*
G36*
X60212488Y-62244010D02*
G01*
X60257632Y-62248456D01*
X60258017Y-62248532D01*
X60294338Y-62259550D01*
X60294700Y-62259700D01*
X60328170Y-62277590D01*
X60328496Y-62277808D01*
X60357836Y-62301887D01*
X60358113Y-62302164D01*
X60382192Y-62331504D01*
X60382410Y-62331830D01*
X60400300Y-62365300D01*
X60400450Y-62365662D01*
X60411468Y-62401983D01*
X60411544Y-62402368D01*
X60415990Y-62447512D01*
X60416000Y-62447708D01*
X60416000Y-62533733D01*
X60415000Y-62535465D01*
X60413000Y-62535465D01*
X60412010Y-62533929D01*
X60406501Y-62477994D01*
X60390241Y-62424391D01*
X60363837Y-62374993D01*
X60328304Y-62331696D01*
X60285007Y-62296163D01*
X60235609Y-62269759D01*
X60182006Y-62253499D01*
X60126071Y-62247990D01*
X60124445Y-62246825D01*
X60124641Y-62244835D01*
X60126267Y-62244000D01*
X60212292Y-62244000D01*
X60212488Y-62244010D01*
G37*
G36*
X57964988Y-62244010D02*
G01*
X58010132Y-62248456D01*
X58010517Y-62248532D01*
X58046838Y-62259550D01*
X58047200Y-62259700D01*
X58080670Y-62277590D01*
X58080996Y-62277808D01*
X58110336Y-62301887D01*
X58110613Y-62302164D01*
X58134692Y-62331504D01*
X58134910Y-62331830D01*
X58152800Y-62365300D01*
X58152950Y-62365662D01*
X58163968Y-62401983D01*
X58164044Y-62402368D01*
X58168490Y-62447512D01*
X58168500Y-62447708D01*
X58168500Y-62533733D01*
X58167500Y-62535465D01*
X58165500Y-62535465D01*
X58164510Y-62533929D01*
X58159001Y-62477994D01*
X58142741Y-62424391D01*
X58116337Y-62374993D01*
X58080804Y-62331696D01*
X58037507Y-62296163D01*
X57988109Y-62269759D01*
X57934506Y-62253499D01*
X57878571Y-62247990D01*
X57876945Y-62246825D01*
X57877141Y-62244835D01*
X57878767Y-62244000D01*
X57964792Y-62244000D01*
X57964988Y-62244010D01*
G37*
M02*
