M48
; DRILL file {KiCad (5.1.9-0-10_14)} date Friday, February 12, 2021 at 07:30:19 PM
; FORMAT={-:-/ absolute / metric / decimal}
; #@! TF.CreationDate,2021-02-12T19:30:19+01:00
; #@! TF.GenerationSoftware,Kicad,Pcbnew,(5.1.9-0-10_14)
FMAT,2
METRIC
T1C0.762
T2C0.800
T3C0.838
T4C1.000
T5C1.100
T6C3.200
%
G90
G05
T1
X114.046Y-60.198
X114.046Y-62.738
X114.046Y-65.278
X114.046Y-67.818
X114.046Y-70.358
X114.046Y-72.898
X114.046Y-75.438
X114.046Y-77.978
X114.046Y-80.518
X114.046Y-83.058
X114.046Y-85.598
X114.046Y-88.138
X114.046Y-90.678
X114.046Y-93.218
X114.046Y-95.758
X139.446Y-60.198
X139.446Y-62.738
X139.446Y-65.278
X139.446Y-67.818
X139.446Y-70.358
X139.446Y-72.898
X139.446Y-75.438
X139.446Y-77.978
X139.446Y-80.518
X139.446Y-83.058
X139.446Y-85.598
X139.446Y-88.138
X139.446Y-90.678
X139.446Y-93.218
X139.446Y-95.758
T2
X63.754Y-94.996
X63.754Y-102.616
X66.294Y-94.996
X66.294Y-102.616
X68.834Y-94.996
X68.834Y-102.616
X71.374Y-94.996
X71.374Y-102.616
X73.914Y-55.118
X73.914Y-65.278
X73.914Y-94.996
X73.914Y-102.616
X76.454Y-94.996
X76.454Y-102.616
X78.994Y-94.996
X78.994Y-102.616
X81.534Y-94.996
X81.534Y-102.616
X89.154Y-94.996
X89.154Y-102.616
X91.694Y-94.996
X91.694Y-102.616
X94.234Y-94.996
X94.234Y-102.616
X96.774Y-94.996
X96.774Y-102.616
X99.314Y-55.118
X99.314Y-65.278
X99.314Y-94.996
X99.314Y-102.616
X101.854Y-94.996
X101.854Y-102.616
X104.394Y-94.996
X104.394Y-102.616
X106.934Y-94.996
X106.934Y-102.616
X146.558Y-94.996
X146.558Y-102.616
X149.098Y-94.996
X149.098Y-102.616
X151.638Y-94.996
X151.638Y-102.616
X154.178Y-94.996
X154.178Y-102.616
X156.718Y-55.118
X156.718Y-65.278
X156.718Y-94.996
X156.718Y-102.616
X159.258Y-94.996
X159.258Y-102.616
X161.798Y-94.996
X161.798Y-102.616
X164.338Y-94.996
X164.338Y-102.616
X171.958Y-94.996
X171.958Y-102.616
X174.498Y-94.996
X174.498Y-102.616
X177.038Y-94.996
X177.038Y-102.616
X179.578Y-94.996
X179.578Y-102.616
X182.118Y-55.118
X182.118Y-65.278
X182.118Y-94.996
X182.118Y-102.616
X184.658Y-94.996
X184.658Y-102.616
X187.198Y-94.996
X187.198Y-102.616
X189.738Y-94.996
X189.738Y-102.616
T3
X67.77Y-77.579
X68.128Y-80.518
X68.821Y-74.808
X69.809Y-82.956
X71.039Y-72.845
X72.433Y-84.333
X73.914Y-72.136
X75.395Y-84.333
X76.789Y-72.845
X78.019Y-82.956
X79.007Y-74.808
X79.7Y-80.518
X80.058Y-77.579
X93.17Y-77.579
X93.528Y-80.518
X94.221Y-74.808
X95.209Y-82.956
X96.439Y-72.845
X97.833Y-84.333
X99.314Y-72.136
X100.795Y-84.333
X102.189Y-72.845
X103.419Y-82.956
X104.407Y-74.808
X105.1Y-80.518
X105.458Y-77.579
X150.574Y-77.579
X150.932Y-80.518
X151.625Y-74.808
X152.613Y-82.956
X153.843Y-72.845
X155.237Y-84.333
X156.718Y-72.136
X158.199Y-84.333
X159.593Y-72.845
X160.823Y-82.956
X161.811Y-74.808
X162.504Y-80.518
X162.862Y-77.579
X175.974Y-77.579
X176.332Y-80.518
X177.025Y-74.808
X178.013Y-82.956
X179.243Y-72.845
X180.637Y-84.333
X182.118Y-72.136
X183.599Y-84.333
X184.993Y-72.845
X186.223Y-82.956
X187.211Y-74.808
X187.904Y-80.518
X188.262Y-77.579
T4
X169.418Y-61.722
X169.418Y-64.262
X169.418Y-66.802
X169.418Y-69.342
X169.418Y-71.882
X169.418Y-74.422
T5
X56.134Y-69.088
X58.674Y-69.088
X61.214Y-69.088
T6
X54.356Y-54.356
X54.356Y-105.664
X195.834Y-54.356
X195.834Y-105.664
T0
M30
