%TF.GenerationSoftware,KiCad,Pcbnew,(5.1.9-0-10_14)*%
%TF.CreationDate,2021-02-12T19:32:22+01:00*%
%TF.ProjectId,nixie_clock,6e697869-655f-4636-9c6f-636b2e6b6963,v01*%
%TF.SameCoordinates,Original*%
%TF.FileFunction,Legend,Bot*%
%TF.FilePolarity,Positive*%
%FSLAX46Y46*%
G04 Gerber Fmt 4.6, Leading zero omitted, Abs format (unit mm)*
G04 Created by KiCad (PCBNEW (5.1.9-0-10_14)) date 2021-02-12 19:32:22*
%MOMM*%
%LPD*%
G01*
G04 APERTURE LIST*
%ADD10C,0.150000*%
%ADD11C,0.120000*%
%ADD12C,0.254000*%
%ADD13C,0.101600*%
G04 APERTURE END LIST*
D10*
X66174857Y-63952380D02*
X66746285Y-63952380D01*
X66460571Y-63952380D02*
X66460571Y-62952380D01*
X66555809Y-63095238D01*
X66651047Y-63190476D01*
X66746285Y-63238095D01*
X65555809Y-62952380D02*
X65460571Y-62952380D01*
X65365333Y-63000000D01*
X65317714Y-63047619D01*
X65270095Y-63142857D01*
X65222476Y-63333333D01*
X65222476Y-63571428D01*
X65270095Y-63761904D01*
X65317714Y-63857142D01*
X65365333Y-63904761D01*
X65460571Y-63952380D01*
X65555809Y-63952380D01*
X65651047Y-63904761D01*
X65698666Y-63857142D01*
X65746285Y-63761904D01*
X65793904Y-63571428D01*
X65793904Y-63333333D01*
X65746285Y-63142857D01*
X65698666Y-63047619D01*
X65651047Y-63000000D01*
X65555809Y-62952380D01*
X64365333Y-63285714D02*
X64365333Y-63952380D01*
X64793904Y-63285714D02*
X64793904Y-63809523D01*
X64746285Y-63904761D01*
X64651047Y-63952380D01*
X64508190Y-63952380D01*
X64412952Y-63904761D01*
X64365333Y-63857142D01*
X52776380Y-62603142D02*
X52776380Y-62031714D01*
X52776380Y-62317428D02*
X51776380Y-62317428D01*
X51919238Y-62222190D01*
X52014476Y-62126952D01*
X52062095Y-62031714D01*
X51776380Y-63222190D02*
X51776380Y-63317428D01*
X51824000Y-63412666D01*
X51871619Y-63460285D01*
X51966857Y-63507904D01*
X52157333Y-63555523D01*
X52395428Y-63555523D01*
X52585904Y-63507904D01*
X52681142Y-63460285D01*
X52728761Y-63412666D01*
X52776380Y-63317428D01*
X52776380Y-63222190D01*
X52728761Y-63126952D01*
X52681142Y-63079333D01*
X52585904Y-63031714D01*
X52395428Y-62984095D01*
X52157333Y-62984095D01*
X51966857Y-63031714D01*
X51871619Y-63079333D01*
X51824000Y-63126952D01*
X51776380Y-63222190D01*
X52109714Y-64412666D02*
X52776380Y-64412666D01*
X52109714Y-63984095D02*
X52633523Y-63984095D01*
X52728761Y-64031714D01*
X52776380Y-64126952D01*
X52776380Y-64269809D01*
X52728761Y-64365047D01*
X52681142Y-64412666D01*
X74620380Y-59507523D02*
X74620380Y-58936095D01*
X74620380Y-59221809D02*
X73620380Y-59221809D01*
X73763238Y-59126571D01*
X73858476Y-59031333D01*
X73906095Y-58936095D01*
X73620380Y-60126571D02*
X73620380Y-60221809D01*
X73668000Y-60317047D01*
X73715619Y-60364666D01*
X73810857Y-60412285D01*
X74001333Y-60459904D01*
X74239428Y-60459904D01*
X74429904Y-60412285D01*
X74525142Y-60364666D01*
X74572761Y-60317047D01*
X74620380Y-60221809D01*
X74620380Y-60126571D01*
X74572761Y-60031333D01*
X74525142Y-59983714D01*
X74429904Y-59936095D01*
X74239428Y-59888476D01*
X74001333Y-59888476D01*
X73810857Y-59936095D01*
X73715619Y-59983714D01*
X73668000Y-60031333D01*
X73620380Y-60126571D01*
X74620380Y-60888476D02*
X73620380Y-60888476D01*
X74620380Y-61459904D02*
X74048952Y-61031333D01*
X73620380Y-61459904D02*
X74191809Y-60888476D01*
X100020380Y-59761523D02*
X100020380Y-59190095D01*
X100020380Y-59475809D02*
X99020380Y-59475809D01*
X99163238Y-59380571D01*
X99258476Y-59285333D01*
X99306095Y-59190095D01*
X99020380Y-60380571D02*
X99020380Y-60475809D01*
X99068000Y-60571047D01*
X99115619Y-60618666D01*
X99210857Y-60666285D01*
X99401333Y-60713904D01*
X99639428Y-60713904D01*
X99829904Y-60666285D01*
X99925142Y-60618666D01*
X99972761Y-60571047D01*
X100020380Y-60475809D01*
X100020380Y-60380571D01*
X99972761Y-60285333D01*
X99925142Y-60237714D01*
X99829904Y-60190095D01*
X99639428Y-60142476D01*
X99401333Y-60142476D01*
X99210857Y-60190095D01*
X99115619Y-60237714D01*
X99068000Y-60285333D01*
X99020380Y-60380571D01*
X100020380Y-61142476D02*
X99020380Y-61142476D01*
X100020380Y-61713904D02*
X99448952Y-61285333D01*
X99020380Y-61713904D02*
X99591809Y-61142476D01*
X182570380Y-59761523D02*
X182570380Y-59190095D01*
X182570380Y-59475809D02*
X181570380Y-59475809D01*
X181713238Y-59380571D01*
X181808476Y-59285333D01*
X181856095Y-59190095D01*
X181570380Y-60380571D02*
X181570380Y-60475809D01*
X181618000Y-60571047D01*
X181665619Y-60618666D01*
X181760857Y-60666285D01*
X181951333Y-60713904D01*
X182189428Y-60713904D01*
X182379904Y-60666285D01*
X182475142Y-60618666D01*
X182522761Y-60571047D01*
X182570380Y-60475809D01*
X182570380Y-60380571D01*
X182522761Y-60285333D01*
X182475142Y-60237714D01*
X182379904Y-60190095D01*
X182189428Y-60142476D01*
X181951333Y-60142476D01*
X181760857Y-60190095D01*
X181665619Y-60237714D01*
X181618000Y-60285333D01*
X181570380Y-60380571D01*
X182570380Y-61142476D02*
X181570380Y-61142476D01*
X182570380Y-61713904D02*
X181998952Y-61285333D01*
X181570380Y-61713904D02*
X182141809Y-61142476D01*
X157170380Y-59507523D02*
X157170380Y-58936095D01*
X157170380Y-59221809D02*
X156170380Y-59221809D01*
X156313238Y-59126571D01*
X156408476Y-59031333D01*
X156456095Y-58936095D01*
X156170380Y-60126571D02*
X156170380Y-60221809D01*
X156218000Y-60317047D01*
X156265619Y-60364666D01*
X156360857Y-60412285D01*
X156551333Y-60459904D01*
X156789428Y-60459904D01*
X156979904Y-60412285D01*
X157075142Y-60364666D01*
X157122761Y-60317047D01*
X157170380Y-60221809D01*
X157170380Y-60126571D01*
X157122761Y-60031333D01*
X157075142Y-59983714D01*
X156979904Y-59936095D01*
X156789428Y-59888476D01*
X156551333Y-59888476D01*
X156360857Y-59936095D01*
X156265619Y-59983714D01*
X156218000Y-60031333D01*
X156170380Y-60126571D01*
X157170380Y-60888476D02*
X156170380Y-60888476D01*
X157170380Y-61459904D02*
X156598952Y-61031333D01*
X156170380Y-61459904D02*
X156741809Y-60888476D01*
D11*
%TO.C,R2*%
X180748000Y-56928000D02*
X183488000Y-56928000D01*
X183488000Y-56928000D02*
X183488000Y-63468000D01*
X183488000Y-63468000D02*
X180748000Y-63468000D01*
X180748000Y-63468000D02*
X180748000Y-56928000D01*
X182118000Y-56158000D02*
X182118000Y-56928000D01*
X182118000Y-64238000D02*
X182118000Y-63468000D01*
D12*
%TO.C,N2*%
X190990220Y-78323440D02*
G75*
G03*
X190990220Y-78323440I-8872220J0D01*
G01*
X189738000Y-78323440D02*
G75*
G02*
X174498000Y-78165960I-7620000J78740D01*
G01*
%TO.C,N3*%
X82786220Y-78323440D02*
G75*
G03*
X82786220Y-78323440I-8872220J0D01*
G01*
X81534000Y-78323440D02*
G75*
G02*
X66294000Y-78165960I-7620000J78740D01*
G01*
%TO.C,N4*%
X108186220Y-78323440D02*
G75*
G03*
X108186220Y-78323440I-8872220J0D01*
G01*
X106934000Y-78323440D02*
G75*
G02*
X91694000Y-78165960I-7620000J78740D01*
G01*
D11*
%TO.C,R1*%
X155348000Y-56928000D02*
X158088000Y-56928000D01*
X158088000Y-56928000D02*
X158088000Y-63468000D01*
X158088000Y-63468000D02*
X155348000Y-63468000D01*
X155348000Y-63468000D02*
X155348000Y-56928000D01*
X156718000Y-56158000D02*
X156718000Y-56928000D01*
X156718000Y-64238000D02*
X156718000Y-63468000D01*
%TO.C,R3*%
X73914000Y-64238000D02*
X73914000Y-63468000D01*
X73914000Y-56158000D02*
X73914000Y-56928000D01*
X72544000Y-63468000D02*
X72544000Y-56928000D01*
X75284000Y-63468000D02*
X72544000Y-63468000D01*
X75284000Y-56928000D02*
X75284000Y-63468000D01*
X72544000Y-56928000D02*
X75284000Y-56928000D01*
%TO.C,R4*%
X99314000Y-64238000D02*
X99314000Y-63468000D01*
X99314000Y-56158000D02*
X99314000Y-56928000D01*
X97944000Y-63468000D02*
X97944000Y-56928000D01*
X100684000Y-63468000D02*
X97944000Y-63468000D01*
X100684000Y-56928000D02*
X100684000Y-63468000D01*
X97944000Y-56928000D02*
X100684000Y-56928000D01*
D12*
%TO.C,N1*%
X165590220Y-78323440D02*
G75*
G03*
X165590220Y-78323440I-8872220J0D01*
G01*
X164338000Y-78323440D02*
G75*
G02*
X149098000Y-78165960I-7620000J78740D01*
G01*
D11*
%TO.C,C1*%
X55130248Y-64156000D02*
X56552752Y-64156000D01*
X55130248Y-62336000D02*
X56552752Y-62336000D01*
%TO.C,C2*%
X61925252Y-64156000D02*
X60502748Y-64156000D01*
X61925252Y-62336000D02*
X60502748Y-62336000D01*
%TO.C,J2*%
X63316000Y-55442000D02*
X63316000Y-57842000D01*
X65716000Y-55442000D02*
X63316000Y-55442000D01*
X65716000Y-57842000D02*
X65716000Y-55442000D01*
X63316000Y-57842000D02*
X65716000Y-57842000D01*
%TO.C,J3*%
X167964000Y-56318000D02*
X170364000Y-56318000D01*
X170364000Y-56318000D02*
X170364000Y-53918000D01*
X170364000Y-53918000D02*
X167964000Y-53918000D01*
X167964000Y-53918000D02*
X167964000Y-56318000D01*
%TO.C,J1*%
X58998000Y-57842000D02*
X61398000Y-57842000D01*
X61398000Y-57842000D02*
X61398000Y-55442000D01*
X61398000Y-55442000D02*
X58998000Y-55442000D01*
X58998000Y-55442000D02*
X58998000Y-57842000D01*
%TO.C,R2*%
D10*
X180200380Y-60031333D02*
X179724190Y-59698000D01*
X180200380Y-59459904D02*
X179200380Y-59459904D01*
X179200380Y-59840857D01*
X179248000Y-59936095D01*
X179295619Y-59983714D01*
X179390857Y-60031333D01*
X179533714Y-60031333D01*
X179628952Y-59983714D01*
X179676571Y-59936095D01*
X179724190Y-59840857D01*
X179724190Y-59459904D01*
X179295619Y-60412285D02*
X179248000Y-60459904D01*
X179200380Y-60555142D01*
X179200380Y-60793238D01*
X179248000Y-60888476D01*
X179295619Y-60936095D01*
X179390857Y-60983714D01*
X179486095Y-60983714D01*
X179628952Y-60936095D01*
X180200380Y-60364666D01*
X180200380Y-60983714D01*
%TO.C,N2*%
D13*
X193327503Y-77990820D02*
X192057503Y-77990820D01*
X193327503Y-78716535D01*
X192057503Y-78716535D01*
X192178456Y-79260820D02*
X192117980Y-79321297D01*
X192057503Y-79442249D01*
X192057503Y-79744630D01*
X192117980Y-79865582D01*
X192178456Y-79926059D01*
X192299408Y-79986535D01*
X192420360Y-79986535D01*
X192601789Y-79926059D01*
X193327503Y-79200344D01*
X193327503Y-79986535D01*
%TO.C,N3*%
X85123503Y-77990820D02*
X83853503Y-77990820D01*
X85123503Y-78716535D01*
X83853503Y-78716535D01*
X83853503Y-79200344D02*
X83853503Y-79986535D01*
X84337313Y-79563201D01*
X84337313Y-79744630D01*
X84397789Y-79865582D01*
X84458265Y-79926059D01*
X84579218Y-79986535D01*
X84881599Y-79986535D01*
X85002551Y-79926059D01*
X85063027Y-79865582D01*
X85123503Y-79744630D01*
X85123503Y-79381773D01*
X85063027Y-79260820D01*
X85002551Y-79200344D01*
%TO.C,N4*%
X110523503Y-77990820D02*
X109253503Y-77990820D01*
X110523503Y-78716535D01*
X109253503Y-78716535D01*
X109676837Y-79865582D02*
X110523503Y-79865582D01*
X109193027Y-79563201D02*
X110100170Y-79260820D01*
X110100170Y-80047011D01*
%TO.C,R1*%
D10*
X154800380Y-60031333D02*
X154324190Y-59698000D01*
X154800380Y-59459904D02*
X153800380Y-59459904D01*
X153800380Y-59840857D01*
X153848000Y-59936095D01*
X153895619Y-59983714D01*
X153990857Y-60031333D01*
X154133714Y-60031333D01*
X154228952Y-59983714D01*
X154276571Y-59936095D01*
X154324190Y-59840857D01*
X154324190Y-59459904D01*
X154800380Y-60983714D02*
X154800380Y-60412285D01*
X154800380Y-60698000D02*
X153800380Y-60698000D01*
X153943238Y-60602761D01*
X154038476Y-60507523D01*
X154086095Y-60412285D01*
%TO.C,R3*%
X71996380Y-60031333D02*
X71520190Y-59698000D01*
X71996380Y-59459904D02*
X70996380Y-59459904D01*
X70996380Y-59840857D01*
X71044000Y-59936095D01*
X71091619Y-59983714D01*
X71186857Y-60031333D01*
X71329714Y-60031333D01*
X71424952Y-59983714D01*
X71472571Y-59936095D01*
X71520190Y-59840857D01*
X71520190Y-59459904D01*
X70996380Y-60364666D02*
X70996380Y-60983714D01*
X71377333Y-60650380D01*
X71377333Y-60793238D01*
X71424952Y-60888476D01*
X71472571Y-60936095D01*
X71567809Y-60983714D01*
X71805904Y-60983714D01*
X71901142Y-60936095D01*
X71948761Y-60888476D01*
X71996380Y-60793238D01*
X71996380Y-60507523D01*
X71948761Y-60412285D01*
X71901142Y-60364666D01*
%TO.C,R4*%
X97396380Y-60031333D02*
X96920190Y-59698000D01*
X97396380Y-59459904D02*
X96396380Y-59459904D01*
X96396380Y-59840857D01*
X96444000Y-59936095D01*
X96491619Y-59983714D01*
X96586857Y-60031333D01*
X96729714Y-60031333D01*
X96824952Y-59983714D01*
X96872571Y-59936095D01*
X96920190Y-59840857D01*
X96920190Y-59459904D01*
X96729714Y-60888476D02*
X97396380Y-60888476D01*
X96348761Y-60650380D02*
X97063047Y-60412285D01*
X97063047Y-61031333D01*
%TO.C,N1*%
D13*
X167927503Y-77990820D02*
X166657503Y-77990820D01*
X167927503Y-78716535D01*
X166657503Y-78716535D01*
X167927503Y-79986535D02*
X167927503Y-79260820D01*
X167927503Y-79623678D02*
X166657503Y-79623678D01*
X166838932Y-79502725D01*
X166959884Y-79381773D01*
X167020360Y-79260820D01*
%TO.C,C1*%
D10*
X56008166Y-61317142D02*
X56055785Y-61364761D01*
X56198642Y-61412380D01*
X56293880Y-61412380D01*
X56436738Y-61364761D01*
X56531976Y-61269523D01*
X56579595Y-61174285D01*
X56627214Y-60983809D01*
X56627214Y-60840952D01*
X56579595Y-60650476D01*
X56531976Y-60555238D01*
X56436738Y-60460000D01*
X56293880Y-60412380D01*
X56198642Y-60412380D01*
X56055785Y-60460000D01*
X56008166Y-60507619D01*
X55055785Y-61412380D02*
X55627214Y-61412380D01*
X55341500Y-61412380D02*
X55341500Y-60412380D01*
X55436738Y-60555238D01*
X55531976Y-60650476D01*
X55627214Y-60698095D01*
%TO.C,C2*%
X61380666Y-61317142D02*
X61428285Y-61364761D01*
X61571142Y-61412380D01*
X61666380Y-61412380D01*
X61809238Y-61364761D01*
X61904476Y-61269523D01*
X61952095Y-61174285D01*
X61999714Y-60983809D01*
X61999714Y-60840952D01*
X61952095Y-60650476D01*
X61904476Y-60555238D01*
X61809238Y-60460000D01*
X61666380Y-60412380D01*
X61571142Y-60412380D01*
X61428285Y-60460000D01*
X61380666Y-60507619D01*
X60999714Y-60507619D02*
X60952095Y-60460000D01*
X60856857Y-60412380D01*
X60618761Y-60412380D01*
X60523523Y-60460000D01*
X60475904Y-60507619D01*
X60428285Y-60602857D01*
X60428285Y-60698095D01*
X60475904Y-60840952D01*
X61047333Y-61412380D01*
X60428285Y-61412380D01*
%TO.C,J2*%
X64849333Y-53554380D02*
X64849333Y-54268666D01*
X64896952Y-54411523D01*
X64992190Y-54506761D01*
X65135047Y-54554380D01*
X65230285Y-54554380D01*
X64420761Y-53649619D02*
X64373142Y-53602000D01*
X64277904Y-53554380D01*
X64039809Y-53554380D01*
X63944571Y-53602000D01*
X63896952Y-53649619D01*
X63849333Y-53744857D01*
X63849333Y-53840095D01*
X63896952Y-53982952D01*
X64468380Y-54554380D01*
X63849333Y-54554380D01*
%TO.C,J3*%
X169497333Y-56568380D02*
X169497333Y-57282666D01*
X169544952Y-57425523D01*
X169640190Y-57520761D01*
X169783047Y-57568380D01*
X169878285Y-57568380D01*
X169116380Y-56568380D02*
X168497333Y-56568380D01*
X168830666Y-56949333D01*
X168687809Y-56949333D01*
X168592571Y-56996952D01*
X168544952Y-57044571D01*
X168497333Y-57139809D01*
X168497333Y-57377904D01*
X168544952Y-57473142D01*
X168592571Y-57520761D01*
X168687809Y-57568380D01*
X168973523Y-57568380D01*
X169068761Y-57520761D01*
X169116380Y-57473142D01*
%TO.C,J1*%
X60531333Y-53554380D02*
X60531333Y-54268666D01*
X60578952Y-54411523D01*
X60674190Y-54506761D01*
X60817047Y-54554380D01*
X60912285Y-54554380D01*
X59531333Y-54554380D02*
X60102761Y-54554380D01*
X59817047Y-54554380D02*
X59817047Y-53554380D01*
X59912285Y-53697238D01*
X60007523Y-53792476D01*
X60102761Y-53840095D01*
%TD*%
M02*
